<svg fill="#ffffff" version="1.1" id="Layer_1" xmlns:x="&amp;ns_extend;" xmlns:i="&amp;ns_ai;" xmlns:graph="&amp;ns_graphs;" xmlns="http://www.w3.org/2000/svg" xmlns:xlink="http://www.w3.org/1999/xlink" width="120px" height="120px" viewBox="-2.4 -2.4 28.80 28.80" enable-background="new 0 0 24 24" xml:space="preserve" stroke="#ffffff" stroke-width="0.00024000000000000003"><g id="SVGRepo_bgCarrier" stroke-width="0"></g><g id="SVGRepo_tracerCarrier" stroke-linecap="round" stroke-linejoin="round"></g><g id="SVGRepo_iconCarrier"> <metadata> <sfw xmlns="&amp;ns_sfw;"> <slices> </slices> <slicesourcebounds width="505" height="984" bottomleftorigin="true" x="0" y="-984"> </slicesourcebounds> </sfw> </metadata> <g> <g> <g> <path d="M12,5c-0.6,0-1-0.4-1-1V1c0-0.6,0.4-1,1-1s1,0.4,1,1v3C13,4.6,12.6,5,12,5z"></path> </g> </g> <g> <g> <path d="M12,24c-0.6,0-1-0.4-1-1v-3c0-0.6,0.4-1,1-1s1,0.4,1,1v3C13,23.6,12.6,24,12,24z"></path> </g> </g> <g> <g> <path d="M23,13h-3c-0.6,0-1-0.4-1-1s0.4-1,1-1h3c0.6,0,1,0.4,1,1S23.6,13,23,13z"></path> </g> </g> <g> <g> <path d="M4,13H1c-0.6,0-1-0.4-1-1s0.4-1,1-1h3c0.6,0,1,0.4,1,1S4.6,13,4,13z"></path> </g> </g> <g> <g> <path d="M17.7,7.3c-0.3,0-0.5-0.1-0.7-0.3c-0.4-0.4-0.4-1,0-1.4l2.1-2.1c0.4-0.4,1-0.4,1.4,0c0.4,0.4,0.4,1,0,1.4l-2.1,2.1 C18.2,7.2,17.9,7.3,17.7,7.3z"></path> </g> </g> <g> <g> <path d="M4.2,20.8c-0.3,0-0.5-0.1-0.7-0.3c-0.4-0.4-0.4-1,0-1.4l2.1-2.1c0.4-0.4,1-0.4,1.4,0c0.4,0.4,0.4,1,0,1.4l-2.1,2.1 C4.7,20.7,4.5,20.8,4.2,20.8z"></path> </g> </g> <g> <g> <path d="M19.8,20.8c-0.3,0-0.5-0.1-0.7-0.3L17,18.4c-0.4-0.4-0.4-1,0-1.4c0.4-0.4,1-0.4,1.4,0l2.1,2.1c0.4,0.4,0.4,1,0,1.4 C20.3,20.7,20,20.8,19.8,20.8z"></path> </g> </g> <g> <g> <path d="M6.3,7.3c-0.3,0-0.5-0.1-0.7-0.3L3.5,4.9c-0.4-0.4-0.4-1,0-1.4c0.4-0.4,1-0.4,1.4,0L7,5.6c0.4,0.4,0.4,1,0,1.4 C6.9,7.2,6.6,7.3,6.3,7.3z"></path> </g> </g> <g> <g> <path d="M12,17c-2.8,0-5-2.2-5-5s2.2-5,5-5s5,2.2,5,5S14.8,17,12,17z M12,9c-1.7,0-3,1.3-3,3s1.3,3,3,3s3-1.3,3-3S13.7,9,12,9z"></path> </g> </g> </g> </g></svg>